<svg width="64" height="64" viewBox="0 0 64 64" fill="none" xmlns="http://www.w3.org/2000/svg">
<path d="M11 16.5859L17.1807 23.4973L39.4992 23.1749C40.6036 23.159 41.5119 24.0414 41.5279 25.1458L41.5531 26.8956L41.564 27.6456C41.5879 29.3022 40.2643 30.6647 38.6076 30.6886L27.9283 30.8429L27.9283 36.9974L35 36.9974L37.5 36.9974C39.1569 36.9974 40.5 38.3406 40.5 39.9974L40.5 48.9974L44.2159 48.9974C47.7135 48.9974 50.7177 46.5122 51.3731 43.0766C51.5339 42.2338 51.5445 41.3692 51.4046 40.5227L50.2435 33.5L51.1181 24.8997C51.4234 21.8975 50.0072 18.9802 47.4594 17.363C46.149 16.5313 44.6242 16.1002 43.0723 16.1226L11 16.5859Z" fill="#252223"/>
<path d="M12 15.5859L18.1807 22.4973L39.4993 22.1894C41.156 22.1654 42.5184 23.489 42.5423 25.1457L42.564 26.6456C42.5879 28.3022 41.2643 29.6647 39.6076 29.6886L28.9283 29.8429L28.9283 35.9974L36 35.9974L38.5 35.9974C40.1569 35.9974 41.5 37.3406 41.5 38.9974L41.5 47.9974L45.2159 47.9974C48.7135 47.9974 51.7177 45.5122 52.3731 42.0766C52.5339 41.2338 52.5445 40.3692 52.4046 39.5227L51.2435 32.5L52.1181 23.8997C52.4234 20.8975 51.0072 17.9802 48.4594 16.363C47.149 15.5313 45.6242 15.1002 44.0723 15.1226L12 15.5859Z" fill="#CF0418"/>
<path d="M17 52V29H23.6461V43.6891L36 44.3655V49.1008H19.1893L17 52Z" fill="#CF0418"/>
<path d="M18 51V28H24.6461V43.3655H37V48.1008H20.1893L18 51Z" fill="#272731"/>
</svg>
